<svg width="460" height="350" fill="none" xmlns="http://www.w3.org/2000/svg"><path d="M165 70c-1 2-3 2-4 2l3-4c1-4 0-7-3-7-2 0-4 1-6 4l-1 3-2 2-5 5-1-2 7-11h2l1-1h-3l3-5h-3l-3 5h-2l-1 1h3l-6 10c-2 3-1 5 2 5l5-3c0 3 5 4 9 0 2 0 5-1 6-3l-1-1Zm-6 0-2 2v1c-1 3-4 2-3-1l3-4 1-2c2-4 5-3 3 1l-2 3ZM207 70c-2 3-5 5-7 5s-3-1-2-4c2 0 6 0 8-4l1-1c1-2 0-4-3-4-2 0-4 1-5 3l-3 5-6 5v-2l4-7c1-3 0-4-2-4l-4 2 5-8h-3l-8 14h-1l-5 5v-2l6-11h2l1-1h-2l3-5h-3l-3 5h-3l-1 1h3l-6 10c-1 3-1 5 2 5l4-2-1 1h3l4-8c5-5 7-5 6-2l-4 6c-1 3-1 5 2 5 2 0 4-2 5-3 1 1 2 3 5 3s6-3 9-6l-1-1Zm-6-4c2-3 5-3 3 0v1c-2 3-4 3-5 2l2-3ZM316 70l-4 4 3-12-2-1-7 9c-2 3-5 5-6 5v-2l6-11h-3l-5 9-5 3 1-2 6-10h-3l-5 8c-2 2-3 2-5 2l3-4c2-4 0-7-3-7-2 0-4 1-6 4l-1 3-1 2c-3 3-5 5-7 5s-3-1-2-4c2 0 6 0 8-4v-1c2-2 1-4-2-4l-6 3-2 5h-1c-2 3-4 5-7 6l7-11h-2c0-2-1-3-3-3-1 0-4 1-5 3l-3 5c-2 3-4 5-6 5v-2l3-5v-4l-2-2v-2l-1-1c-2 1-2 3-1 4l-5 7c-2 2-3 3-5 3l3-5c2-3 0-6-3-6-2 0-4 0-5 3l-2 3-1 2-7 6 6-11h-1c0-2-2-3-4-3l-5 3-4 7c-1 3 0 5 2 5l3-1-1 1c-4 1-6 3-6 5 0 3 4 4 6 0l3-4 7-4c0 3 5 4 8 0h1c2 0 5-1 6-3l5-6 1 2-4 6c-1 2 0 4 2 4s4-1 5-3c0 2 1 3 3 3l3-1-1 1c-4 1-7 3-7 5 0 3 5 4 7 0l2-4 8-5c0 2 1 4 4 4l7-4c0 4 5 5 8 1h1l3-1c-1 2 0 4 2 4l5-3c-1 1 0 3 2 3 3 0 6-3 8-6l4-5c-1 3 0 8-3 8l-1-1-2 1s0 3 3 3h1c3-1 6-3 8-6l-1-1Zm-43-4c2-3 5-3 3 0v1c-2 3-4 3-5 2l2-3Zm-57 15c-1 2-2 1-2 1l3-3-1 2Zm1-6v-2l4-7c2-3 5-2 4 0l-3 4c-2 3-3 5-5 5Zm19-5-2 2v1c-1 3-5 2-3-1l2-4 2-2c2-4 5-3 3 1l-2 3Zm19 11c-1 2-2 1-2 1l3-3-1 2Zm1-6v-2l4-7c1-3 5-2 3 0l-2 4-5 5Zm29-5-1 2v1c-2 3-5 2-3-1l2-4 1-2c3-4 5-3 4 1l-3 3ZM130 67h-29v2h29v-2ZM357 67h-29v2h29v-2Z" fill="#766458"/><path d="M163 0h8l-1 45h-15l-2-19-2 19h-14l-1-45h7l1 37h1l4-37h8l5 37h1V0ZM195 37v8h-21V0h21v8h-13v11h10v7h-10v11h13ZM216 37v8h-18V0h8v37h10ZM233 28l7-1v13c0 3-2 5-4 5h-12c-2 0-5-2-5-5V5c0-3 3-5 5-5h12c2 0 4 2 4 5v9l-7 2V8h-6v29h6v-9ZM261 0c3 0 5 2 5 5v35c0 3-2 5-5 5h-11c-3 0-5-2-5-5V5c0-3 2-5 5-5h11Zm-3 8h-5v29h5V8ZM291 0h7v45h-7V23l-3 11h-8l-3-11v22h-7V0h7l7 22 7-22ZM323 37v8h-21V0h21v8h-13v11h10v7h-10v11h13Z" fill="#81B3D3"/><path d="M45 158c-4-3-9-5-13-5s-9 2-9 6 6 6 9 7l5 2c10 3 18 8 18 20 0 7-1 15-7 20s-14 7-21 7c-10 0-19-3-27-8l8-16c5 4 11 8 18 8 4 0 9-3 9-8s-8-7-12-8c-12-4-20-7-20-21 0-16 11-26 26-26 7 0 17 3 23 7l-7 15ZM92 155v12h22v17H92v13h23v16H72v-75h43v17H92ZM129 138h28a38 38 0 1 1 0 75h-28v-75Zm20 59h4c12 0 22-7 22-21s-9-21-21-21h-5v42ZM287 174c0 25-17 42-41 42s-42-17-42-42c0-22 20-38 42-38 21 0 41 16 41 38Zm-63 1c0 12 10 22 21 22 12 0 22-10 22-22 0-11-10-20-22-20-11 0-21 9-21 20ZM297 138h20l35 46h1v-46h19v75h-19l-36-46v46h-20v-75ZM407 200l-5 13h-20l28-75h22l28 75h-21l-5-13h-27Zm14-38-8 23h16l-8-23ZM108 288c8-3 8-12 1-12-2 0-5 1-6 4l-11 18-1 2c-3-4-2-9 2-12l-2-1c-8 5-5 19 8 19 11 0 16-13 9-18Zm-9 15-6-1 2-3 7-11h1c8 2 5 15-4 15Zm4-17 3-5c3-5 6-2 4 1-1 3-3 4-7 4Z" fill="#fff"/><path d="M140 300c0 2 1 4 3 4l6-2c0 1 1 2 3 2l6-3c0 2 1 3 3 3l6-3c0 2 1 3 3 3 3 0 7-3 10-7l5-7c-1 4 0 11-4 11l-2-1-2 1s0 3 4 3h1c3 0 6-2 8-4 0 2 2 4 5 4 4 0 9-3 12-7l-2-1c-3 3-6 6-9 6-2 0-3-2-2-5h1c2 1 7 0 10-5v-1c2-3 0-6-3-6s-5 2-7 5l-4 6-5 4c1-3 1-9 4-14l-3-1-9 11c-2 3-5 6-7 6v-2l8-14h-4l-7 11c-2 3-5 4-5 4v-2l8-13h-4l-6 10h-1c-3 3-5 6-7 6v-2l6-11h-2c0-2-2-4-4-4s-5 2-7 5l-4 6h-1c-2 3-6 6-9 6-2 0-3-2-2-5l4-6c3-4 6-4 4 0v1h3v-1c2-3 0-6-3-6s-5 2-7 5l-4 6c-3 3-6 6-9 6-2 0-4-2-2-5 3 1 7 0 10-5l1-1c2-3 0-6-3-6s-6 2-7 5l-4 7c-3 4-1 7 4 7 3 0 6-2 9-4 0 2 2 4 5 4s7-2 9-4Zm58-10c2-3 6-3 4 1v1c-2 3-5 3-6 3l2-5Zm-54 10 5-9c2-4 6-3 5 0l-3 6c-3 3-5 5-7 5v-2Zm-24-10c2-3 6-3 4 1l-1 1c-2 3-4 3-6 3l3-5ZM248 304c5 0 9-3 12-7l-1-1h-1c-2 3-6 6-8 6-3 0-4-2-2-5 2 1 7 0 10-5v-1c2-3 0-6-3-6s-5 2-7 5l-3 6h-1c-3 3-5 6-7 6v-2l5-10c2-3 0-5-2-5l-5 3 6-10h-4l-11 18-7 6c-1 0-2-1-1-2l8-15h3l1-1h-3l4-7h-4l-3 7h-4l-1 1h4l-8 14c-2 2-1 5 3 5l6-3-2 3h4l6-10c5-8 8-7 6-4l-4 9c-2 2-1 5 2 5l7-4c0 2 2 4 5 4Zm4-14c2-3 6-3 3 1v1c-2 3-4 3-6 3l3-5ZM363 296c-3 3-5 6-7 6v-2l12-22h-3l-6 9-3-2c-2 0-5 2-7 5l-4 6-7 6c-1 0-2-1-1-2l6-10c1-3 0-5-2-5s-4 1-5 3l1-3h-4l-6 11h-1c-2 3-5 6-7 6v-2l6-11h-2c0-2-1-4-4-4-2 0-5 2-6 5l-4 6-7 6c-1 0-2-1-1-2l4-7c1-2 1-4-1-5l-2-3 1-2-2-2c-3 2-3 4-1 6l-7 9h1c-3 4-6 6-9 7l5-8h-4v1c-2 3-5 6-8 6-2 0-3-3 0-7l1-2 2 1c13 0 20-19 8-19-2 0-5 2-6 5l-6 10c-2-1-4-3-4-5s1-4 3-5l-1-2c-3 2-4 4-4 7s1 6 4 7l-1 2c-2 5-2 10 4 10l4-1-1 1c-5 2-9 4-9 7 0 4 6 4 9 0l3-5 12-9-1-1 6-7h1v2l-4 7c-2 3 0 6 3 6l6-3c0 2 1 3 3 3l5-3c0 2 2 3 4 3l5-3-1 2h4l5-10c6-7 9-6 7-3l-5 8c-1 3 0 6 3 6l6-3c0 1 1 3 4 3l5-3c0 2 1 3 3 3 3 0 7-4 10-7l-2-1Zm-77-14 3-3c6 0 2 12-8 12h-1l6-9Zm-9 28c0 2-2 1-2 0l4-3-2 3Zm40-14c-2 4-4 6-6 6v-2l5-10c2-3 6-2 4 1l-3 5Zm37 0c-2 4-5 6-6 6s-2-1-1-2l6-10c2-3 6-2 4 1l-3 5ZM237 332h-1c-2 3-5 6-7 6v-2l5-10c2-3 1-5-2-5l-5 3 2-3h-4l-6 11h-1l-6 3 4-6c2-4 0-8-4-8-3 0-5 1-7 5l-2 3-2 3c-3 4-6 6-9 7l10-18h-3l-7 12-6 4 1-3 7-12h-4l-6 10h-1c-2 3-5 6-7 6v-2l5-10c2-3 1-5-2-5l-5 3 2-3h-4l-6 11h-1c-3 3-5 6-7 6l-1-2 7-11h-3c0-2-1-4-4-4-2 0-5 2-6 5l-4 6h-1c-3 3-6 6-10 6-3 0-4-3-2-7l1-2 2 1c4 0 9-2 12-8l2-5c0-3-3-5-5-5-3 0-5 1-7 4l-6 10c-2-1-3-3-3-5l2-5-1-2c-3 2-4 4-4 7s2 6 5 7l-1 2c-3 5-1 10 4 10 4 0 8-2 10-4-1 2 1 4 3 4l6-2c0 1 1 2 3 2l6-3-2 3h4l6-10c6-8 8-7 7-4l-5 9c-2 2-1 5 2 5 2 0 5-1 7-3-1 2 0 3 2 3l6-3-2 4c-5 1-9 3-9 6 0 4 6 4 9 0l2-5c4-1 7-3 10-6 0 5 7 6 11 1h1l5-2-3 5h4l6-11c6-7 8-6 6-3l-4 9c-2 2-1 5 2 5s7-3 10-7l-1-1Zm-95-14 4-3 2 2c0 4-4 10-10 10h-1l5-9Zm14 14-6 6c-1 0-2-1-1-2l6-10c2-3 6-2 4 1l-3 5Zm29 14c-1 2-3 1-3 0l4-3-1 3Zm25-14-2 2v2c-2 3-6 2-4-2l3-5 2-3c3-4 6-3 4 1l-3 5ZM325 333l-2-1-5 4c2-3 1-9 4-14l-3-1-9 11c-3 3-5 6-7 6-1 0-2-1-2-3v-1c3 0 6-2 8-5l1-2c3-6-2-8-6-4l5-10h-4l-11 19h-1c-2 3-6 6-8 6-3 0-4-2-2-5l3-7c3-3 7-3 4 1v1h3v-1c2-3 0-6-3-6s-5 2-7 5l-3 6h-1c-3 3-5 6-7 6v-2l8-14h-4l-7 11-6 4 1-2 7-13h-4l-7 12-2 2 3-14-3-1-14 18 2 1 10-14c-1 4 0 11-4 11l-2-1-2 1s1 3 4 3h1l6-2 2 2c3 0 5-2 7-3-1 2 0 3 3 3l7-4c0 2 2 4 5 4 4 0 7-1 9-4l-2 4h4l4-8v3c0 4 1 5 4 5s7-3 10-7l5-7c-1 4 0 11-4 11l-2-1-2 1s0 3 4 3h1c4 0 8-4 11-7Zm-26-3 2-2c4-6 7-4 6-2l-2 3c-1 2-5 4-6 1ZM325 336c-2 0-3 1-3 2s1 2 3 2l2-2-2-2ZM325 334h4l11-20h-3l-12 20ZM80 278v1l-1 1h-2l-2-1v-5l1-1 1-1 1-1h1l2 2h-1l-1 1h-1v1l2 1v2Zm8 0v1l-1 1h-3l-1-1v-5l1-1 1-1 1-1h1l2 2h-1l-1 1h-1v1l2 1v2ZM353 337l1-1v-1l1-1h2l1 1 1 1v4l-2 2-1 1h-1l-2-2h2l1-1v-1l-2-1-1-1Zm-7 0v-2l1-1h3l1 1v5l-1 2h-1l-1 1h-1l-2-2h2l1-1v-1l-2-1v-1Z" fill="#fff"/></svg>