<svg width="39" height="37" viewBox="0 0 39 37" fill="none" xmlns="http://www.w3.org/2000/svg"><path d="M15 33h9V21h-9v12Zm7-1h-5v-9h5v9Z" fill="#81B3D2"/><path d="m38 20 1-1-5-5V0h-7v7l-8-7L0 19l1 1 4-4v19H3v2h33v-2h-2V16l4 4ZM28 2h4v10l-4-4V2Zm4 33H7V15L19 2l13 13v20Z" fill="#81B3D2"/><path d="M16 14c0 2 1 4 4 4 2 0 4-2 4-4s-2-4-4-4c-3 0-4 2-4 4Zm4-3c1 0 2 1 2 3l-2 2c-2 0-3-1-3-2 0-2 1-3 3-3ZM10 21H9v2h1v-2ZM13 21h-1v2h1v-2ZM10 24H9v2h1v-2ZM13 24h-1v2h1v-2ZM27 21h-2v2h2v-2ZM30 21h-1v2h1v-2ZM27 24h-2v2h2v-2ZM30 24h-1v2h1v-2Z" fill="#81B3D2"/></svg>