<svg width="229" height="39" viewBox="0 0 229 39" fill="none" xmlns="http://www.w3.org/2000/svg"><path d="m27 27-2 6-4 4-2 1-2 1h-4a20 20 0 0 1-13-5l5-8a163 163 0 0 0 3 4l5 1h2a5 5 0 0 0 3-2v-2l-1-2-3-2h-1l-2-1-5-2a8 8 0 0 1-4-6v-4l1-2 1-2 5-5 6-1h3a21 21 0 0 1 8 3l-4 8-3-3h-4l-3 1-1 2v1l1 1 2 1 3 1 2 1h2l5 4 1 6v1Zm30 3v8H35V1h22v8H45v7h12v7H45v7h12Zm39-2a16 16 0 0 1-11 9l-7 1H64V1h15l6 1 6 2 5 6 2 8v2l-2 8Zm-8-9-2-5-2-3-3-1-3-1h-4v21h4l3-1 3-1 3-4 1-4v-1Zm54 2v4a19 19 0 0 1-9 11c-3 2-7 3-10 3h-2a21 21 0 0 1-8-2c-3-2-5-4-7-8-2-3-3-6-3-10v-3a25 25 0 0 1 2-6l8-7a20 20 0 0 1 11-3h2a21 21 0 0 1 8 3c3 2 5 4 6 7 2 3 2 7 2 10v1Zm-10-2v-1l-1-5-4-3-1-1h-3l-6 1-3 5v1l-1 1v4l2 6a8 8 0 0 0 5 3l1 1h2l5-2a10 10 0 0 0 4-8v-2Zm44 19-14-19-1-2a25 25 0 0 1-2-3v-2a43 43 0 0 1 0 8v18h-9V1h9l14 19 1 2 1 2 1 1 1 2v-2l-1-1V1h10v37h-10Zm43 0-2-7h-14l-2 7h-10l12-37h13l13 37h-10Zm-8-26v-2l-1-2V7v1l-1 1v3l-4 12h10l-4-12Z" fill="#fff"/></svg>