<svg width="40" height="35" viewBox="0 0 40 35" fill="none" xmlns="http://www.w3.org/2000/svg"><path d="M38 23H2l-2 2v2l2 2h1v1c0 3 2 5 5 5h24c3 0 5-2 5-5v-1h1l2-2v-2l-2-2Zm-2 7c0 2-2 3-4 3H8c-2 0-4-1-4-3v-1h32v1Zm2-3v1H2v-3h36v2ZM9 19l2 2 3-2 3 2 3-2 3 2 3-2 3 2 2-2 3 2 4-2-1-1-3 1-3-2-2 2-3-2-3 2-3-2-3 2-3-2-3 2-2-2-3 2-3-1-1 1 4 2 3-2ZM37 16v-2c0-8-8-14-17-14S3 6 3 14v2h34ZM20 2c8 0 15 5 16 12H4C5 7 12 2 20 2Z" fill="#81B3D2"/><path d="m20 9 1-1-1-1-1 1 1 1ZM16 6l1-1-1-1-1 1 1 1ZM24 6l1-1-1-1-1 1 1 1Z" fill="#81B3D2"/></svg>