<?xml version="1.0" encoding="UTF-8"?><!DOCTYPE svg PUBLIC "-//W3C//DTD SVG 1.1//EN" "http://www.w3.org/Graphics/SVG/1.1/DTD/svg11.dtd"><svg xmlns="http://www.w3.org/2000/svg" xmlns:xlink="http://www.w3.org/1999/xlink"><defs><clipPath id="a"><path fill="#fff" d="M0 0h24v24H0z"/></clipPath></defs><symbol id="burger-icon"><g fill="none"><path d="M37.743 23.3H2.257C.997 23.3 0 24.314 0 25.478v1.773c0 1.165.997 2.128 2.257 2.128h.525v.506c0 2.786 2.362 5.015 5.197 5.015h24.042c2.887 0 5.197-2.28 5.197-5.015v-.506h.525c1.207 0 2.257-.963 2.257-2.178v-1.773c0-1.114-.997-2.128-2.257-2.128Zm-2.047 6.585c0 1.925-1.628 3.495-3.622 3.495H7.927c-1.995 0-3.623-1.57-3.623-3.495v-.506h31.392v.506Zm2.73-2.684c0 .354-.316.658-.683.658H2.257c-.367 0-.682-.304-.682-.658v-1.773c0-.304.315-.608.682-.608h35.538c.368 0 .683.304.683.659V27.2h-.053ZM8.504 19.197l2.835 2.026 2.887-2.026 2.887 2.026L20 19.197l2.835 2.026 2.887-2.026 2.887 2.026 2.887-2.026 2.887 2.026 3.307-2.38-.892-1.216-2.415 1.672-2.887-2.026-2.887 2.026-2.887-2.026-2.887 2.026L20 17.273l-2.887 2.026-2.887-2.026-2.887 2.026-2.835-2.026-2.887 2.026-2.415-1.672-.945 1.216 3.36 2.38 2.887-2.026Zm28.714-3.444c0-.304.052-1.317 0-1.52C36.85 6.332 29.29 0 20 0S3.097 6.332 2.73 14.233v1.52h34.488ZM20 1.52c8.399 0 15.328 5.673 15.643 12.713H4.304C4.672 7.193 11.601 1.52 20 1.52Z" fill="#81B3D2"/><path d="M20 8.611c.58 0 1.05-.453 1.05-1.013 0-.56-.47-1.013-1.05-1.013-.58 0-1.05.454-1.05 1.013 0 .56.47 1.013 1.05 1.013Zm-4.2-2.482c.58 0 1.05-.454 1.05-1.013 0-.56-.47-1.013-1.05-1.013-.58 0-1.05.453-1.05 1.013 0 .56.47 1.013 1.05 1.013Zm8.4 0c.58 0 1.05-.454 1.05-1.013 0-.56-.47-1.013-1.05-1.013-.58 0-1.05.453-1.05 1.013 0 .56.47 1.013 1.05 1.013Z" fill="#81B3D2"/></g></symbol><symbol id="gift-icon"><g fill="none"><path d="M30.578 11.206H18.184c6.908-3.444 7.467-5.622 7.213-6.838-.559-1.975-2.845-3.495-4.978-2.685-2.794 1.064-3.556 5.218-4.317 8.206-.966-3.04-1.88-6.889-4.064-8.864-.61-.557-1.524-1.114-2.895-1.013-2.032.203-4.927 2.684-3.708 5.47 1.117 2.685 4.825 4.407 7.314 5.775H1.422C.61 11.257 0 11.915 0 12.675v5.672c0 .811.66 1.419 1.422 1.419h.153V38h28.952V19.766h.05c.813 0 1.423-.659 1.423-1.418v-5.673c0-.81-.66-1.47-1.422-1.47ZM21.232 2.95c1.066-.152 2.489.658 2.641 1.62.203 1.368-1.676 2.634-2.54 3.192-1.27.86-2.489 1.316-3.657 2.026.407-1.874 1.27-6.534 3.556-6.838ZM9.752 7.914c-1.117-.76-3.25-2.23-3.2-3.9.051-1.824 2.896-3.293 4.42-1.925 1.93 1.671 2.844 5.571 3.555 8.306-1.625-.81-3.15-1.418-4.775-2.481ZM12.75 36.48H3.048V19.765h9.701V36.48Zm0-18.235H1.524v-5.52h11.225v5.52Zm5.08 18.235h-3.607V12.724h3.607V36.48Zm11.174 0h-9.65V19.765h9.701V36.48h-.05Zm1.473-18.235H19.352v-5.52h11.124v5.52Z" fill="#81B3D2"/></g></symbol><symbol id="house-icon"><g fill="none"><path d="M15.402 33.22h8.353V21.06h-8.353v12.16Zm6.839-1.476h-5.325v-9.207h5.273v9.207h.052Z" fill="#81B3D2"/><path d="M37.904 20.043 39 18.975l-5.169-5.036V.203h-7.205v6.715L19.474 0 0 19.026l1.096 1.068 4.073-3.968v19.23H3.133v1.474h33.361v-1.475h-2.663v-19.28l4.073 3.968ZM28.14 1.73h4.124v10.733L28.14 8.445V1.73Zm4.176 33.574H6.735V14.6L19.474 2.137 32.265 14.6v20.704h.052Z" fill="#81B3D2"/><path d="M15.558 13.837c0 2.187 1.828 3.968 4.02 3.968 2.245 0 4.073-1.78 4.073-3.968 0-2.188-1.828-3.917-4.073-3.917s-4.02 1.73-4.02 3.917Zm4.02-2.544c1.41 0 2.61 1.12 2.61 2.544 0 1.373-1.148 2.543-2.61 2.543-1.41 0-2.61-1.119-2.61-2.543 0-1.374 1.2-2.544 2.61-2.544Zm-9.188 9.768H8.822v1.984h1.566v-1.984Zm3.08 0h-1.566v1.984h1.566v-1.984Zm-3.08 3.052H8.822v1.984h1.566v-1.984Zm3.08 0h-1.566v1.984h1.566v-1.984Zm13.574-3.052h-1.566v1.984h1.566v-1.984Zm3.133 0H28.61v1.984h1.566v-1.984Zm-3.133 3.052h-1.566v1.984h1.566v-1.984Zm3.133 0H28.61v1.984h1.566v-1.984Z" fill="#81B3D2"/></g></symbol><symbol id="mask2"><g fill="none"><path fill-rule="evenodd" clip-rule="evenodd" d="M-225 0h384v37L-225 0Zm768 0H159v37L543 0Z" fill="#fff"/></g></symbol><symbol id="favicon"><g fill="none"><path fill="#81B3D3" d="M0 0h32v32H0z"/><path d="M10.723 19.743c.023.023.034.045.034.067.023 0 .046.01.068.033a15.05 15.05 0 0 0 2.077 1.847c.771.55 1.657.846 2.655.89.023 0 .046.011.068.033h.102c.023 0 .046.011.069.033h.374c.114-.022.216-.044.306-.066a2.88 2.88 0 0 0 1.022-.396c.34-.198.601-.44.783-.725l.068-.132.068-.132a3.71 3.71 0 0 0 .102-.43 2.16 2.16 0 0 0 .034-.362c0-.593-.272-1.088-.817-1.484a5.897 5.897 0 0 0-1.702-.957 5.066 5.066 0 0 0-.715-.197 9.509 9.509 0 0 0-.647-.165h-.068c-.023-.022-.045-.033-.068-.033a11.341 11.341 0 0 1-3.132-1.254c-.976-.593-1.645-1.44-2.009-2.54-.07-.23-.139-.46-.204-.692a7.682 7.682 0 0 1-.102-.759.94.94 0 0 1-.034-.23V11.3a4.3 4.3 0 0 1 .102-.528c.07-.45.184-.89.34-1.32a5.02 5.02 0 0 1 .613-1.187c.726-1.165 1.657-2 2.792-2.506A8.92 8.92 0 0 1 16.51 5c.295 0 .59.022.885.066.319.022.636.055.953.099.828.135 1.638.356 2.417.66.817.307 1.566.67 2.247 1.088L21.14 10.97a13.172 13.172 0 0 0-1.94-1.154 5.004 5.004 0 0 0-2.213-.495h-.272c-.522.066-1.01.297-1.464.692-.454.374-.68.781-.68 1.22v.199a.821.821 0 0 0 .101.198c.046.154.125.296.239.429.113.131.238.252.374.362.25.198.613.385 1.09.561.476.154.975.308 1.497.462.431.11.851.22 1.26.33.409.088.749.176 1.021.264 1.271.44 2.224 1.176 2.86 2.21.635 1.01.964 2.088.987 3.232v.165c0 .132-.011.264-.034.396v.362a7.976 7.976 0 0 1-1.157 3.266 6.204 6.204 0 0 1-2.485 2.375c-.388.176-.786.33-1.192.461-.406.11-.814.209-1.226.297-.337.066-.678.11-1.02.132a7.706 7.706 0 0 1-.988.066h-.375c-1.361-.044-2.7-.33-4.017-.858A12.568 12.568 0 0 1 8 23.965l2.723-4.222Z" fill="#fff"/></g></symbol><symbol id="mail-icon"><g fill="none"><path d="M8 8c-.3 0-.5-.1-1-.3L0 4v7c0 .5.5 1 1 1h14c.5 0 1-.5 1-1V4L9 7.7c-.5.2-.7.3-1 .3Zm7-8H1C.5 0 0 .5 0 1v.8L8 6l8-4.2V1c0-.5-.5-1-1-1Z" fill="#000"/></g></symbol><symbol id="phone-icon"><g fill="none"><path d="M3.6 7.8c1.4 2.8 3.8 5.1 6.6 6.6l2.2-2.2c.3-.3.7-.4 1-.2 1.1.4 2.3.6 3.6.6.6 0 1 .4 1 1V17c0 .6-.4 1-1 1C7.6 18 0 10.4 0 1c0-.6.4-1 1-1h3.5c.6 0 1 .4 1 1 0 1.2.2 2.4.6 3.6.1.3 0 .7-.2 1L3.6 7.8Z" fill="#010101"/></g></symbol><symbol id="tick"><g fill="none"><path d="M21.805 1.307 20.76.222c-.285-.296-.856-.296-1.141 0L8.298 11.957 2.403 5.843c-.286-.296-.856-.296-1.142 0L.214 6.928c-.285.295-.285.887 0 1.183l7.419 7.692c.19.197.38.197.57.197.191 0 .381-.099.571-.197L21.615 2.49c.476-.296.476-.789.19-1.183Z" fill="#333"/></g></symbol><symbol id="mask"><g fill="none"><path d="M249.6 23.7 0 0v57h600L249.6 0v23.7Zm700.8 0V0L600 57h599.9V0L950.4 23.7Z" fill="#fff"/></g></symbol><symbol id="htmlacademy" viewBox="0 0 60 60"><path fill="#2E368F" d="M30.2 5H30L10.3 7.1v36.2L30 55l19.7-11.7V7.1L30.2 5zm17 36.8L30 52 12.8 41.8V27l17.1 10.2V39l-11.7-7v1.8L30 40.9v1.9l-11.8-7v1.8l11.8 7 11.9-7.1v-7.6l5.3-3.2v15.1zm-.1-17-4.7 2.8-2.2 1.3-10.3-6.1v1.8l8.8 5.3h-.1l-.2.1-1.3.7-7.3-4.3v1.8l5.8 3.4-1.4.9-4.3-2.6v1.8l2.9 1.7-2.9 1.7-17-10.1 17-10.2 17.2 10zm.1-1.8L29.9 12.8 12.8 23V9.4L30 7.6l17.2 1.8V23z"/></symbol><symbol id="icon-menu-close"><g fill="none"><path d="m22 3-3-3-8 8-8-8-3 3 8 8-8 8 3 3 8-8 8 8 3-3-8-8 8-8Z" fill="#fff"/></g></symbol><symbol id="icon-menu-open"><g fill="none"><path d="M23 0H0v4h23V0Zm0 9H0v4h23V9Zm0 9H0v4h23v-4Z" fill="#81B3D2"/></g></symbol><symbol id="logo"><g fill="none"><path d="M185 0H0l79.81 90.1c7.04 7.87 18.44 7.87 25.48 0L185 0Z" fill="#81B3D3"/><path d="M42.83.7 92 58.84 140.88 1.1 42.83.7Z" fill="#23A9E1"/><path d="M120.95 17.22c-5.05 0-10 .1-15.07.1 5.95-6.87 8.63-6.17 15.07-.1ZM80.1 22.6h26.48c-1.98-1.2-6.64-7.07-9.22-4.88-.2.2-7.44-8.86-12.2-4.48-4.16 3.78-6.04-.5-10.8 2.49-5.26 3.58 3.17 5.68 5.75 6.87Z" fill="#fff"/><path d="M92.3 0H41.84v22.4L92 83.63l.3-.4 50.27-60.13V0H92.3ZM54.43 1.8h5.45v17.12l-5.45-6.48V1.8Zm-.8 9.75-4.95-5.88V1.8h4.96v9.76Zm19.14-2.69L67.12 1.8h5.65v7.07Zm-6.54 3.78L60.68 1.8h5.55v10.85ZM60.58 3.4l5.45 10.65a39.17 39.17 0 0 0-5.45 4.88V3.39Zm6.44-.5 5.55 6.87a41.79 41.79 0 0 0-5.55 3.68V2.89Zm6.54-.2 4.76 4.18c-1.68.7-3.27 1.5-4.76 2.29V2.69Zm5.56 3.88L73.76 1.8h5.95v4.58c-.3 0-.4.1-.6.2ZM98.05 1.8h4.96l-4.96 2.4V1.8Zm-5.75 0h4.36L92.3 3.9V1.8Zm-.9 2-4.15-2h4.16v2Zm-5.44.5L80.9 1.8h5.06v2.5ZM80.4 2.4l4.66 2.29c-1.58.4-3.17.8-4.66 1.3v-3.6Zm6.35 0L90.12 4c-1.19.1-2.28.2-3.47.4v-2h.1Zm10.31.1v1.9c-1.09-.2-2.18-.3-3.37-.4l3.37-1.5Zm6.44-.1v3.68c-1.48-.5-3.07-1-4.75-1.4l4.75-2.28Zm.7-.6h5.85l-5.36 4.78c-.2-.1-.3-.1-.5-.2V1.8Zm13.48 0h5.55l-5.55 10.85V1.8Zm-6.54 0h5.65l-5.65 6.97V1.8Zm-.8.9v6.47c-1.48-.8-3.07-1.6-4.75-2.29l4.76-4.18Zm6.55.2v10.45c-.7-.5-1.49-1-2.28-1.6-1-.69-2.18-1.39-3.37-2.08l5.65-6.77Zm6.34.5v15.13c-1.09-1-2.87-2.69-5.45-4.58l5.45-10.55Zm.8 15.92V1.8h5.45v11.35l-5.45 6.17c0 .1.1.1 0 0Zm6.24-17.52h4.96v4.68l-4.96 5.78V1.79Zm-82.29 0v2.89L45.51 1.8h2.48Zm12.7 18.12.1.1s3.56-3.88 9.12-7.57C75.15 8.96 83.08 4.88 92 4.98c8.83 0 16.96 4.18 22.11 7.66 5.56 3.69 9.22 7.47 9.32 7.57l-3.86 4.48c-6.84.9-11.8 6.07-18.44 4.98-3.38-.6-3.47-2.49-4.47-4.48-.69-1.5-1.88-1.3-3.47-1.9-1.38-.59-2.28-1.69-5.15-1.09-2.48.6-2.78 4.48-5.95 4.28-1.69-.1-1.78-2.49-4.16-5.47-6.25-7.57-12.1-6.47-16.07.5l30.05 35.74L60.68 19.9Zm75.24-14.43v-3.7h3.18l-3.18 3.69Z" fill="#491213"/><path d="M87.94 70.59 92 64.12l3.97 6.47L92 77.06l-4.06-6.47Z" fill="#23A9E1"/><path d="M64.94 32.16c.5.6.9 1.3.8 2.09-.1.6-.9 1.6-.3 1.79.69-.9 1.48-1.9 2.18-2.79-.6-.2-5.36-5.77-5.36-6.47-1.09.6-2.08 1.2-3.17 1.7.2.7 1.29 0 1.88 0 .8.1 1.4.6 1.99 1.19-1.69 1.4-5.85 4.98-6.35 5.08-.2 0-1.09-.6-1.09-.1 0 .3.9 1 1 1.2.69.89 1.48 1.78 2.17 2.68.6-.3-.1-.7.2-1.2.3-.4 4.86-4.28 6.05-5.17Zm-5.26-6.97c.4-.1.6.4 1-.1-.8-1-1.6-1.9-2.38-2.89-.4-.4-.8-.9-.7 0 .1.6-6.05 5.68-6.44 5.78-.5.2-.8-.4-1.1.1.7.9 1.5 1.69 2.19 2.58.2.3.5.6.7.9.29.3.19-.7.19-.6-.1-.5.5-.9.9-1.2 1.48-1.29 5.25-4.57 5.64-4.57Zm-8.72-.89c-1.79.49-3.67-.2-4.16-2-.5-1.8.59-3.78 2.08-4.78 1.39-1 3.57-1 4.36.8.3.8.2 1.7-.1 2.49-.2.5-.6 1 .1 1.3.9-1.1 1.68-2.2 2.58-3.3-1.1-.6-1.49-1.69-2.28-2.58-.9-1.1-2.09-2.1-3.47-2.3-2.88-.39-5.55 2.6-5.75 5.19a6.3 6.3 0 0 0 1.19 3.98c.79 1 1.88 1.6 2.38 2.79.3.1 2.67-1 3.27-1.3-.1-.1-.1-.2-.2-.3 0 0-.7.2 0 0Zm38.96 36.23c-1.19-.8-3.96-4.68-4.56-5.27-.1-.1-.2-.3-.3-.4 0 0-.3.2-.2.2-.2.1.1.6-.1.9-.79 1.19-5.74 4.97-5.94 5.17-.6.4-1.2-.2-1.49.3.7.9 2.78 3.48 2.98 3.58.5.1.1-.8.2-1 .1-.4 2.57-2.38 3.46-3.18.3-.3.7.4.9.7.3.5.5 1 .3 1.6-.1.39-.7.89-.3 1.19.6-.7 2.38-2.8 2.57-3 .3-.29-.6 0-.5-.1-.39.2-.69.2-1.08 0-.1-.1-1.1-1.09-1-1.19.4-.4 1-1 1.5-1.1.89-.19 1.58 1.5 1.68 2.1.1.6.1 1.2-.1 1.8-.1.39-.5.69 0 .89.7-1 1.39-1.9 2.08-2.89.2-.2 0-.3-.1-.3.2 0-.1-.1 0 0Zm-10.11-4.18a5.32 5.32 0 0 0 .8-7.27c-1.9-2.49-5.36-3.08-7.74-1.1a5.31 5.31 0 0 0-.8 7.28c1.99 2.68 5.16 2.98 7.74 1.09-.1.1 1.19-.9 0 0Zm-.5-4.68a7.36 7.36 0 0 1-3.66 3.68c-1.79.7-3.08-.8-2.38-2.58a7.77 7.77 0 0 1 3.66-3.69c1.89-.7 3.08.9 2.38 2.6.1-.2-.4.89 0 0Zm-5.85-9.86c.5.1.9.5 1.3 0-.7-.9-1.5-1.79-2.19-2.58-.6.3 0 .5-.2 1-.2.39-2.57.79-3.17.89.2-.6.9-2.6 1.2-2.79.49-.4.88.4 1.28-.1L69 34.95c-.3-.4-.6-1-.99-.7 0 0 0 1.5-.1 1.7-.1.19-.89 3.57-1.88 4.47-.5.4-2.18 1.9-2.68 2.1-.5.2-.8-.6-1.19 0 .8.99 1.69 1.98 2.48 2.98.1.1.6.9.8.9.49.1.1-.9.1-1.1.2-.4 2.47-2.69 3.46-2.89 1.2-.2 2.98-.7 4.46-.6-.4 0 .3.1 0 0Z" fill="#fff"/><path d="M67.22 22.8c-3.97-.2-2.38-3.98.4-4.78 2.57-.8 8.03 1.7 9.71 3.39-2.77.9-6.34.7-9.32.9-.2-3.2-.99-2.1-.8.49Zm9.42 12.44c-8.53-.1-2.78-13.24.1-12.44 3.37 1.1 2.97 12.54-.1 12.44Zm6.04-4.28c-.79 2.5-2.37 2.99-2.18-.1.2-3.48 2.48-2.68 4.86-3.98 1.98-1.1 3.08-5.18 6.55-2.79 1.58 1.1 3.37.2 3.86 1.8 0-.1-4.46 10.25-1.98 10.25-4.96 0-2.78-5.87-.9-9.86-1.78.9-4.75 6.67-2.37 7.57-1.3 1.7-5.16 3.88-7.14 2.29-1.49-1.1-.7-3.19-.7-5.18Zm4.07 9.56c-3.47 1-8.03-1.2-2.48-2.29 3.47-.7 7.14.7 2.48 2.3-.1 0 .1 0 0 0Zm4.36-.1c-.7-1.7.6-3.58 2.68-2.19 1.78 1.2-.9 3.09-2.68 2.2ZM88.14 45c-2.38-.7-10.41-.6-5.16-2.79 1.69-.6 10.11.2 5.16 2.8Zm10.41 3.29c-1.39-1.2-2.88-1.3-4.17 0-1.78-3.29-8.23-2.2-11.3-2.7 1.59 4.09 14.67 4.89 15.47 2.7Zm-1.89 2.49c-3.17-.1-6.64-.6-9.51.1 1.88.5 6.34 1.79 2.18 2.88 1.48 2.2 3.96 2 5.55.1-.7-.3-1-.7-1.59-1.1 1.59-.3 3.18-1.19 3.37-1.98Zm3.57-3.88c-5.25-3.1-3.96-5.38.4-7.57 2.28-1.1 7.24-5.18 9.32-3.89-3.27 3.89-6.54 7.67-9.72 11.45Z" fill="#DC6243"/><path d="M96.47 39.62c-4.47-4.58 6.64-4.18 8.42-5.77 1.3.4 10.71-8.26 12.99-7.67-1.69 1.9-5.16 8.07-7.73 8.07-1.98 0-3.97-.3-5.46 1.1-2.18 2.08-5.84 3.08-8.22 4.27Z" fill="#F49774"/><path d="M97.95 34.05c-2.48 1.3-4.76-3.88-.5-3.39 2.78.3 5.66-.2 8.24.2-1.99 2.3-4.66 3.59-7.74 3.19Z" fill="#F4B1A4"/><path d="M110.44 52.27c.2.6.3 1.3.2 1.99-.1.9-.99 2.89-2.18 2.29-1.19-.6-2.18-1.7-3.17-2.59.8-.9 1.49-1.7 2.88-1.3.4.1.69 0 .3-.3-.4-.2-3.08-1.98-3.28-1.78-.3.3.5.9.2 1.49-.2.4-.6.8-.9 1.2-.69-.6-1.88-1.3-1.08-2.3.5-.7 1.28-1.19 2.08-1.29.6-.1 1.78.4 1.98-.2-1.09-.5-2.18-1-3.27-1.6.2.8-3.27 4.49-4.07 5.48-.1.1-.69.6-.69.8 0 .4.6.1.7.1.49-.2 6.74 5.08 6.93 5.48.1.3-.2.6 0 .7 0 0 .2.2.3.2.4-.5 4.46-5.98 5.35-6.18-.79-1.2-1.58-2.4-2.37-3.68-.6.3 0 1 .1 1.49Zm-6.14 6.67c-2.08-1.3-5.55 1.3-6.05 1.5-1 .49-1.78-.5-1.29-1.5a3 3 0 0 1 2.28-1.3c.3 0 1.3.2 1.49 0 .1-.2.2-.2 0-.3-.9-.6-1.69-1.19-2.58-1.69-.2 1.1-1.39 1.7-2.08 2.4-.8.89-1.49 1.88-1.49 3.18 0 1.1.7 2.09 1.69 2.69 1.09.6 2.28.1 3.27-.5.6-.4 1.29-.9 1.88-1.2 1-.5 2.28-.1 1.99 1.3a3.44 3.44 0 0 1-2.38 2.29c-.6.2-1.3.1-1.89-.1-.4-.1-.99-.7-1.19-.1 1.2.8 2.28 1.7 3.47 2.49.1-.8.5-1.1 1.1-1.6.69-.6 1.38-1.29 1.98-2.09 1.19-1.69 1.58-4.08-.2-5.47Zm0 0c.99.6-.6-.5 0 0Zm36.38-39.43c-.7.7-8.33-2.29-8.92-2.78-.3-.1-.3-1.3-.7-.8l-1.18 1.5c-.4.5-.8.99-1.3 1.49-.29.3-.49.5 0 .7.8-.4 5.36 7.26 4.96 8.46-.69.4-6.84-5.08-7.03-5.38-.1-.1.3-1-.2-.9-.2 0-.7.9-.9 1.1-.3.4-.59.7-.89 1.1.3.5.5 0 1 0 .4.1 1.78 1.29 2.18 1.69-.7 0-2.68.1-2.88.1-.9.1-.4-.7-1-.9-.78.9-1.48 1.8-2.27 2.79l-1.29 1.59c-.1.1 0 0 0 .1.3.3.1.2.6 0 .49-.2 6.54 4.88 6.74 5.18.4.4-.2 1 .4 1.2.59-.7 1.18-1.5 1.78-2.2.1-.1.1-.1 0-.2-.4-.4-.5.2-1 .2-.49-.1-4.36-3.38-5.84-4.58 1.78-.1 7.23-.3 8.13-.3.3 0 1.09.9 1.09 1.2-.1.4-.5.6.1.8.5-.6.99-1.1 1.48-1.7l.2-.3c.1-.1.1-.1.2-.3l.2-.2c.4-.5 1.78-1.99 1.58-2.09-.5-.4-.69.5-1.28-.1-.3-.2-1.2-1.79-1.4-2.19-.29-.4.6-.9 1-1.09.8-.5 3.17-1.2 3.47.3 0 .3-.3.5-.1.7 0 0 .2.2.3.2.2-.2 2.38-2.8 3.27-3.99-.3-.2-.4-.3-.5-.4Zm-7.33 2.2c.1 0 .2-.1 0 0-.3.2-.7.5-1 .79-.49-.9-.99-1.8-1.58-2.69 1.19.5 2.38 1 3.47 1.5-.2.1-.5.2-.9.4Zm-9.62 11.14c-2.38-1.99-5.55-1.39-7.54.8a5.38 5.38 0 0 0 .6 7.57c2.28 1.89 5.65 1.4 7.53-.8 1.89-2.29 1.79-5.67-.59-7.57Zm-.3 6.58s0 .1 0 0c-1.29 1.29-3.37.1-4.46-.7-1.09-.8-3.07-2.59-1.88-4.08 1.09-1.3 3.07-.2 4.16.5 1.2.8 3.37 2.58 2.28 4.18l-.1.1Z" fill="#fff"/><path d="M123.73 32.85c1.19 1-.3-.2 0 0Zm-.3 6.68c0-.1 0-.1 0 0l.1-.1c-.1 0-.1.1-.1.1Zm-6.24 2.38c.1.1.3.3 0 0-2.88-2.19-6.25-1.59-8.43 1.1l-2.98 3.58c.4.5.8-.1 1.3.2.4.3 6.14 5.08 6.24 5.38.2.5-.3.5.1.9.2.1 4.46-5.18 4.86-6.18.89-1.79.3-3.68-1.1-4.98Zm-1.3 6.77c-.2.3 0 .1-.69.7-.3.3-6.34-4.68-6.14-4.88.79-.9 2.58-1.59 3.57-1.3 2.18.5 5.15 3.2 3.27 5.48Z" fill="#fff"/></g></symbol><symbol id="like-icon"><g fill="none"><path d="m13 4-1 3v2h9v3l-3 7H8V8l5-4ZM2 11v8-8ZM14 0 7 7 6 8v11l2 2h10l2-1 3-8V9l-2-2h-7l1-4V1l-1-1ZM4 8H0v13h4V8Z" fill="#fff"/></g></symbol><symbol id="play-button"><g fill="none"><path d="M48 27 0 54V0l48 27Z" fill="#fff" fill-opacity=".7"/></g></symbol><symbol id="sprites"/><symbol id="index-intro-image"><g fill="none"><path d="m101.385 42.804-.123.123c-.859.917-1.84 1.345-2.761 1.345l1.718-2.996c1.105-1.896.061-3.73-1.657-3.73-1.412 0-2.516.55-3.56 2.384l-.92 1.59-.737 1.284-.122.123c-1.35 1.529-2.64 2.752-3.437 2.752-.43 0-.614-.306-.184-.979l3.927-6.849h1.473l.553-.856H94.02L95.74 34h-1.841l-1.719 2.996h-1.657l-.552.856h1.657l-3.682 6.36c-.798 1.345-.246 2.63 1.227 2.63 1.044 0 2.27-.796 3.376-1.896 0 2.323 3.252 2.813 5.216.305h.43c1.104 0 2.823-.672 3.743-1.773 0-.306-.307-.55-.552-.673Zm-3.928.123h-.061c-.614 0-1.105.489-1.105 1.1 0 .245.062.428.184.612v.061c-.859 1.468-2.945 1.223-1.902-.734l1.411-2.385.86-1.467c1.288-2.201 3.068-1.345 1.963.55l-1.35 2.263Zm29.397-.123-.123.122c-1.35 1.53-3.007 2.752-4.296 2.752-1.104 0-1.779-.734-.982-2.201l.184-.306c1.166.49 3.437.245 4.787-2.14l.246-.428c.982-1.712.061-2.935-1.473-2.935-1.473 0-2.639.795-3.437 2.14l-1.78 3.057-.122.123c-1.35 1.528-2.639 2.751-3.437 2.751-.43 0-.614-.305-.184-.978l2.639-4.647c.798-1.407.061-2.385-.982-2.385-.798 0-1.657.428-2.578 1.406l2.946-5.075h-1.841l-5.094 8.744-.123.122c-1.35 1.53-2.639 2.752-3.436 2.752-.43 0-.614-.305-.185-.978l3.928-6.849h1.473l.552-.856h-1.534l1.719-2.996h-1.842l-1.718 2.996h-1.657l-.552.856h1.657l-3.683 6.36c-.797 1.345-.245 2.63 1.228 2.63.736 0 1.534-.368 2.332-.98l-.491.796h1.841l2.762-4.831c2.823-3.547 4.05-3.058 3.314-1.712l-2.394 4.158c-.797 1.345-.245 2.63 1.228 2.63 1.105 0 2.332-.857 3.437-1.958.061 1.162 1.043 1.957 2.516 1.957 2.086 0 4.173-1.59 5.646-3.363.061-.367-.246-.611-.491-.734Zm-3.498-2.568c1.043-1.834 2.946-1.529 1.841.367l-.246.428c-.859 1.468-2.086 1.468-2.761 1.223l1.166-2.018Zm70.454 2.568-.123.123c-.675.795-1.473 1.467-2.209 2.018.613-1.774.429-4.403 1.595-6.788l-1.35-.734c-.736 1.04-2.393 3.425-4.112 5.381l-.123.123c-1.35 1.528-2.639 2.751-3.436 2.751-.43 0-.614-.305-.184-.978l3.927-6.849h-1.841l-3.253 5.687c-1.411 1.284-2.454 1.957-2.823 1.835-.429-.184 0-.856.246-1.284l3.559-6.238h-1.841l-2.884 4.953-.123.123c-.859.917-1.841 1.345-2.762 1.345l1.719-2.996c1.104-1.896.061-3.73-1.657-3.73-1.412 0-2.516.55-3.56 2.384l-.92 1.59-.737 1.284-.122.123c-1.351 1.528-3.008 2.751-4.296 2.751-1.105 0-1.78-.733-.982-2.2l.184-.307c1.166.49 3.436.245 4.787-2.14l.245-.428c.982-1.712.062-2.935-1.473-2.935-1.473 0-2.639.795-3.437 2.14l-1.779 3.058-.123.122c-1.534 1.773-2.823 2.874-4.296 3.485l4.112-7.032h-1.105c0-.734-.798-1.773-1.902-1.773-.982 0-2.394.795-3.13 2.14l-1.78 3.058-.123.122c-1.35 1.529-2.639 2.752-3.437 2.752-.429 0-.613-.306-.184-.979l1.841-3.18c.614-1.1.307-1.773-.245-2.507l-1.043-1.223c-.246-.305-.246-.733.122-1.04l-.982-1.039c-1.043.918-1.104 1.957-.49 2.813l.184.184c-.798 1.161-1.903 2.69-3.13 4.097l-.123.122c-.859.917-1.841 1.345-2.762 1.345l1.719-2.996c1.104-1.896.061-3.73-1.657-3.73-1.412 0-2.517.55-3.56 2.385l-.92 1.59-.737 1.284-.123.122c-1.534 1.773-2.823 2.874-4.296 3.485l4.112-7.032h-1.104c0-.734-.798-1.773-1.903-1.773-.982 0-2.393.795-3.13 2.14l-2.577 4.464c-.798 1.345-.246 2.63 1.227 2.63.491 0 1.105-.245 1.78-.612l-.491.856c-2.455.734-4.051 1.773-4.051 3.119 0 1.773 2.701 2.14 4.051-.123l1.411-2.385c1.473-.427 2.885-1.345 4.419-2.751 0 2.324 3.253 2.813 5.217.306h.429c1.105 0 2.823-.673 3.744-1.774.859-1.04 1.595-1.957 3.068-3.913l.246.305c.245.306.307.673.123 1.04l-1.964 3.363c-.798 1.345-.246 2.63 1.227 2.63.921 0 1.964-.612 2.946-1.468 0 .856.552 1.468 1.596 1.468.491 0 1.104-.245 1.779-.612l-.429.734c-2.455.734-4.051 1.773-4.051 3.118 0 1.774 2.701 2.14 4.051-.122l1.411-2.385c1.473-.489 2.946-1.345 4.48-2.813.062 1.162.982 1.957 2.517 1.957 1.472 0 3.007-.856 4.234-1.957-.061 2.385 3.253 2.874 5.217.367h.429c.553 0 1.35-.183 2.026-.55-.491 1.284-.062 2.14.981 2.14.982 0 2.148-.917 3.008-1.773-.184.978.429 1.773 1.595 1.773 1.535 0 3.253-1.59 4.787-3.363 1.044-1.223 1.964-2.507 2.639-3.363-.736 1.896-.307 5.32-2.086 5.32-.614 0-.86-.673-.86-.673l-1.166.612s.307 1.467 2.026 1.467c.184 0 .306 0 .491-.06h.061c1.902-.245 3.744-1.713 5.094-3.303-.062-.306-.368-.611-.675-.673Zm-26.329-2.568c1.044-1.834 2.946-1.529 1.842.367l-.246.428c-.859 1.468-2.086 1.468-2.762 1.223l1.166-2.018Zm-35.104 9.54c-.368.672-.982.61-.982.06 0-.489.43-1.039 1.841-1.59l-.859 1.53Zm.859-4.098c-.429 0-.613-.305-.184-.978l2.578-4.464c.982-1.712 2.946-1.284 2.025.367l-1.411 2.446c-1.105 1.773-2.271 2.63-3.008 2.63Zm11.293-2.751h-.062c-.613 0-1.104.489-1.104 1.1 0 .245.061.428.184.612v.061c-.859 1.468-2.946 1.223-1.903-.734l1.412-2.385.859-1.467c1.289-2.201 3.069-1.345 1.964.55l-1.35 2.263Zm11.537 6.848c-.368.673-.981.612-.981.062 0-.49.429-1.04 1.841-1.59l-.86 1.528Zm.86-4.097c-.43 0-.614-.305-.184-.978l2.577-4.464c.982-1.712 2.946-1.284 2.025.367l-1.411 2.446c-1.105 1.773-2.271 2.63-3.007 2.63Zm18.104-2.751h-.061c-.614 0-1.105.489-1.105 1.1 0 .245.061.428.184.612v.061c-.859 1.468-2.946 1.223-1.902-.734l1.411-2.385.859-1.467c1.289-2.201 3.069-1.345 1.964.55l-1.35 2.263Zm-95.186-2.08H62.107v1.223h17.737v-1.223Zm139.312 0H201.42v1.223h17.736v-1.223Z" fill="#766458"/><path d="M100.035 0h4.725l-.736 27.456h-8.899l-1.227-11.313-1.228 11.313h-8.96L83.035 0H87.7l.368 22.747h.492L91.566 0h4.664l3.007 22.747h.491L100.035 0Zm19.516 22.747v4.77h-12.827V0h12.827v4.708h-8.163v6.605h6.506v4.708h-6.506v6.665h8.163v.061Zm13.133 0v4.77h-11.231V0h4.665v22.747h6.566Zm9.942-5.381 4.726-1.1v8.316c0 1.59-1.35 2.874-2.885 2.874h-7.057c-1.596 0-2.885-1.345-2.885-2.874V2.874A2.876 2.876 0 0 1 137.41 0h7.057c1.535 0 2.885 1.284 2.885 2.874v5.565l-4.726 1.1V4.647h-3.375v18.04h3.375v-5.32ZM160.117 0c1.534 0 2.884 1.284 2.884 2.874v21.647c0 1.59-1.35 2.874-2.884 2.874h-7.058c-1.595 0-2.884-1.345-2.884-2.874V2.874A2.876 2.876 0 0 1 153.059 0h7.058Zm-1.841 4.708h-3.375v18.04h3.375V4.707ZM178.344 0h4.665v27.456h-4.665V13.942l-1.902 6.971h-4.603l-1.841-6.971v13.514h-4.664V0h4.664l4.173 13.27L178.344 0Zm19.823 22.747v4.77h-12.826V0h12.826v4.708h-8.162v6.605h6.505v4.708h-6.505v6.665h8.162v.061Z" fill="#81B3D3"/><path d="M27.187 96.372c-2.209-1.834-4.97-3.057-7.917-3.057-2.209 0-5.093 1.284-5.093 3.852 0 2.69 3.252 3.73 5.278 4.342l3.068.917c6.383 1.896 11.354 5.075 11.354 12.474 0 4.525-1.105 9.234-4.726 12.291-3.62 3.058-8.408 4.281-13.01 4.281-5.77 0-11.477-1.957-16.141-5.198l4.971-9.478c3.007 2.63 6.505 4.709 10.617 4.709 2.823 0 5.77-1.407 5.77-4.587 0-3.363-4.665-4.464-7.243-5.197-7.487-2.202-12.397-4.097-12.397-12.964 0-9.295 6.628-15.348 15.834-15.348 4.603 0 10.31 1.467 14.361 3.79l-4.726 9.173Zm29.029-1.712v7.644h13.44v10.089h-13.44v7.889h14.238v10.089H44.31v-45.74h26.144v10.09l-14.238-.06Zm23.075-10.028H96.23c12.765 0 23.321 10.028 23.321 22.87 0 12.841-10.617 22.869-23.321 22.869H79.29v-45.74Zm11.968 35.65h2.7c7.119 0 13.195-3.914 13.195-12.78 0-8.194-5.401-12.78-13.072-12.78h-2.823v25.56Zm84.692-13.637c0 14.798-10.679 25.255-25.408 25.255-14.729 0-25.407-10.457-25.407-25.255 0-13.82 12.212-23.542 25.407-23.542s25.408 9.723 25.408 23.542Zm-38.418.061c0 7.889 5.83 13.637 12.949 13.637s12.949-5.748 12.949-13.637c0-6.298-5.83-12.107-12.949-12.107-7.058 0-12.949 5.809-12.949 12.107Zm44.739-22.074h11.967l21.848 28.006h.123V84.632h11.968v45.739H216.21l-21.848-28.067h-.123v28.067h-11.967v-45.74Zm67.57 37.79-3.192 7.949h-12.642l17.675-45.74h13.01L282 130.372h-12.704l-3.007-7.949h-16.447Zm8.346-23.665h-.123l-4.909 14.554h9.942l-4.91-14.554ZM66.22 175.926c4.725-1.59 5.032-7.46.43-7.46-1.29 0-2.824.917-3.867 2.69l-6.26 10.824c-.307.489-.552.917-.92 1.345-1.596-2.201-1.167-5.504 1.104-6.971l-.92-1.162c-4.91 3.119-3.437 12.046 4.725 12.046 6.935 0 10.188-8.316 5.708-11.312Zm-5.77 9.539c-1.41 0-2.454-.306-3.375-.795.43-.489.798-1.039 1.166-1.651l3.928-6.787.614.061c5.462 1.162 3.314 9.172-2.332 9.172Zm2.517-10.579 1.902-3.241c1.719-2.935 3.867-1.223 2.7.979-.92 1.712-2.209 2.201-4.602 2.262Z" fill="#fff"/><path d="M85.92 183.448c-.369 1.346.368 2.507 1.902 2.507.92 0 2.087-.611 3.253-1.528.123.917.859 1.528 2.025 1.528 1.227 0 2.578-.856 3.928-2.079-.246 1.223.307 2.079 1.473 2.079 1.288 0 2.7-1.161 3.805-2.201-.246 1.223.491 2.201 1.964 2.201 1.902 0 4.111-2.079 6.075-4.28 0-.061-.061-.061-.061-.122 1.289-1.468 2.393-3.058 3.253-4.159-.921 2.385-.43 6.727-2.639 6.727-.798 0-1.105-.856-1.105-.856l-1.473.734s.43 1.895 2.578 1.895c.245 0 .429 0 .675-.061h.061c1.718-.245 3.375-1.284 4.848-2.568.062 1.529 1.228 2.629 3.13 2.629 2.639 0 5.278-2.079 7.181-4.28-.184-.306-.553-.673-.859-.795l-.185.183c-1.657 1.957-3.805 3.486-5.462 3.486-1.411 0-2.27-.917-1.227-2.752l.245-.428c1.473.611 4.296.306 6.076-2.691l.307-.55c1.227-2.14.061-3.73-1.841-3.73-1.903 0-3.376.978-4.357 2.691l-2.271 3.852h-.062l-.184.183c-.859.979-1.902 1.896-2.823 2.508.737-2.202.553-5.626 2.026-8.561l-1.719-.918c-.982 1.346-3.068 4.342-5.155 6.788l.061.061-.061.122c-1.657 1.957-3.314 3.486-4.357 3.486-.491 0-.798-.367-.246-1.284l4.971-8.683h-2.332l-4.112 7.215c-1.78 1.59-3.13 2.507-3.56 2.324-.552-.245 0-1.101.308-1.59l4.541-7.888h-2.332l-3.682 6.359c-.062-.061-.123-.061-.184-.122l-.185.183c-1.657 1.957-3.314 3.486-4.357 3.486-.49 0-.798-.367-.245-1.284l3.743-6.543h-1.35c.061-.979-.92-2.324-2.455-2.324-1.227 0-3.007.979-3.989 2.691l-2.332 4.036c-.123-.123-.246-.184-.368-.245l-.184.183c-1.657 1.957-3.805 3.486-5.462 3.486-1.412 0-2.271-.917-1.228-2.752l2.394-4.158c1.35-2.324 3.743-1.896 2.332.489l-.307.551h1.902l.307-.551c1.228-2.14.062-3.73-1.84-3.73-1.903 0-3.376.979-4.358 2.691l-2.332 3.974c-.062-.061-.123-.061-.184-.122l-.184.184c-1.657 1.956-3.806 3.485-5.463 3.485-1.411 0-2.27-.917-1.227-2.752l.246-.428c1.472.612 4.296.306 6.075-2.69l.307-.551c1.228-2.14.062-3.73-1.841-3.73s-3.375.979-4.357 2.691l-2.455 4.158c-1.473 2.446-.184 4.77 2.577 4.77 2.026 0 4.112-1.223 5.77-2.813-.062 1.59 1.165 2.813 3.13 2.813 1.963-.123 3.866-1.223 5.523-2.63Zm35.595-5.87c1.35-2.324 3.743-1.896 2.332.489l-.307.55c-1.105 1.896-2.639 1.835-3.498 1.529l1.473-2.568Zm-33.263 5.687 3.252-5.626c1.228-2.14 3.744-1.59 2.578.489l-1.841 3.18c-1.412 2.201-2.823 3.241-3.744 3.241-.49-.061-.798-.367-.245-1.284ZM73.4 177.578c1.35-2.324 3.743-1.896 2.332.489l-.307.55c-1.105 1.896-2.639 1.835-3.498 1.529l1.473-2.568Zm78.923 8.376c2.639 0 5.278-2.079 7.18-4.28-.184-.306-.552-.673-.859-.795l-.184.183c-1.657 1.957-3.805 3.486-5.462 3.486-1.411 0-2.271-.918-1.227-2.752l.245-.428c1.473.611 4.296.306 6.076-2.691l.307-.55c1.227-2.14.061-3.73-1.841-3.73-1.903 0-3.376.978-4.358 2.69l-2.27 3.853s-.062 0-.062-.061l-.184.183c-1.657 1.957-3.314 3.486-4.357 3.486-.491 0-.798-.367-.246-1.285l3.376-5.87c.982-1.773.061-3.057-1.228-3.057-.982 0-2.086.55-3.252 1.773l3.743-6.421h-2.393l-6.567 11.313c-.061-.061-.184-.122-.245-.184l-.185.184c-1.657 1.957-3.314 3.485-4.357 3.485-.491 0-.798-.366-.245-1.284l4.971-8.683h1.902l.675-1.101h-1.902l2.209-3.791h-2.332l-2.209 3.791h-2.087l-.675 1.101h2.148l-4.664 8.072c-.982 1.712-.307 3.302 1.595 3.302 1.166 0 2.394-.734 3.683-1.835l-.921 1.59h2.332l3.56-6.115c3.559-4.464 5.155-3.913 4.173-2.201l-3.007 5.259c-.982 1.712-.307 3.302 1.595 3.302 1.412 0 3.008-1.101 4.48-2.568 0 1.528 1.167 2.629 3.069 2.629Zm1.903-8.377c1.35-2.324 3.743-1.896 2.332.489l-.307.55c-1.105 1.896-2.639 1.835-3.498 1.529l1.473-2.568Zm68.674 3.302-.184.184c-1.657 1.956-3.314 3.485-4.358 3.485-.491 0-.797-.367-.245-1.284l7.855-13.575h-2.332l-3.437 5.87c-.429-.673-1.166-1.223-2.148-1.223-1.227 0-3.007.979-3.989 2.691l-2.27 3.913c-.062 0-.123-.061-.123-.061l-.184.184c-1.657 1.956-3.314 3.485-4.358 3.485-.491 0-.797-.367-.245-1.284l3.375-5.87c.982-1.774.062-3.058-1.227-3.058-.982 0-2.087.55-3.253 1.712l.859-1.528h-2.332l-3.743 6.42c-.062-.061-.123-.122-.246-.122l-.184.183c-1.657 1.957-3.314 3.486-4.357 3.486-.491 0-.798-.367-.246-1.284l3.744-6.543h-1.166c.061-.979-.921-2.324-2.455-2.324-1.227 0-3.007.979-3.989 2.691l-2.271 3.852-.123.122c-1.657 1.957-3.314 3.486-4.357 3.486-.491 0-.798-.367-.245-1.284l2.332-4.036c.798-1.407.429-2.201-.307-3.119l-1.289-1.59c-.307-.428-.307-.917.123-1.345l-1.228-1.345c-1.35 1.162-1.411 2.507-.613 3.547l.184.244c-1.044 1.468-2.394 3.424-3.928 5.198l.184.183c-1.902 2.202-3.559 3.608-5.4 4.403l2.945-5.014h-2.27l-.246.428c-1.227 2.14-2.639 3.73-4.48 3.73-1.596 0-1.902-1.59-.491-3.975l.675-1.162c.43.062.859.123 1.35.123 8.285 0 12.275-11.068 4.971-11.068-1.288 0-2.823.917-3.866 2.69l-3.621 6.237c-1.35-.733-2.087-2.017-2.087-3.302 0-1.1.491-2.14 1.473-2.935l-.736-1.345c-1.657 1.162-2.394 2.752-2.394 4.342 0 1.834 1.044 3.607 2.946 4.586l-.675 1.223c-1.657 2.813-1.35 5.931 1.964 5.931a4.69 4.69 0 0 0 2.516-.734l-.613 1.04c-3.13.978-5.094 2.201-5.094 3.975 0 2.201 3.437 2.69 5.094-.184l1.779-3.057c2.394-.734 4.787-2.385 7.365-5.381-.062-.062-.062-.123-.123-.245 1.043-1.223 1.903-2.385 3.682-4.77l.307.367c.307.367.43.856.123 1.346l-2.455 4.28c-.982 1.712-.307 3.302 1.596 3.302 1.166 0 2.455-.734 3.682-1.834 0 1.039.675 1.834 2.025 1.834.921 0 2.087-.611 3.253-1.529.123.918.859 1.529 2.025 1.529 1.105 0 2.332-.673 3.498-1.712l-.859 1.467h2.332l3.56-6.176c3.559-4.464 5.155-3.852 4.112-2.14l-3.008 5.259c-.981 1.712-.306 3.302 1.596 3.302 1.227 0 2.578-.856 3.928-2.018-.123 1.162.614 2.018 2.025 2.018.921 0 2.087-.611 3.253-1.529.122.918.859 1.529 2.025 1.529 1.902 0 4.112-2.079 6.076-4.28-.246-.123-.675-.49-.982-.612Zm-47.808-8.683c.675-1.162 1.473-1.712 2.086-1.712 3.683 0 1.105 7.521-4.971 7.521h-.491l3.376-5.809Zm-4.971 17.489c-.491.856-1.289.733-1.289.122 0-.612.552-1.284 2.332-1.957l-1.043 1.835Zm24.364-8.439c-1.412 2.201-2.823 3.241-3.744 3.241-.491 0-.797-.367-.245-1.284l3.253-5.626c1.227-2.14 3.743-1.59 2.577.489l-1.841 3.18Zm22.523-.122c-1.411 2.323-2.823 3.363-3.805 3.363-.491 0-.798-.367-.245-1.284l3.252-5.626c1.228-2.14 3.744-1.59 2.578.489l-1.78 3.058Zm-71.865 21.769-.184.183c-1.657 1.957-3.314 3.485-4.358 3.485-.491 0-.798-.366-.245-1.284l3.375-5.87c.982-1.773.062-3.057-1.227-3.057-.982 0-2.087.55-3.253 1.712l.859-1.529h-2.332l-3.743 6.482c-.123-.061-.185-.122-.307-.184l-.184.184c-1.044 1.162-2.333 1.712-3.499 1.712l2.21-3.791c1.411-2.446.123-4.709-2.087-4.709-1.78 0-3.191.734-4.541 3.058l-1.166 1.957-.982 1.712c-.062-.061-.123-.061-.184-.123l-.184.184c-1.903 2.201-3.56 3.608-5.401 4.403l6.382-10.885h-2.332l-4.112 7.154c-1.779 1.652-3.191 2.569-3.62 2.385-.553-.244 0-1.1.306-1.59l4.542-7.888h-2.332l-3.744 6.421c-.061-.061-.123-.061-.184-.122l-.184.183c-1.657 1.957-3.314 3.485-4.357 3.485-.491 0-.798-.366-.246-1.284l3.376-5.87c.981-1.773.061-3.057-1.228-3.057-.982 0-2.087.55-3.253 1.712l.86-1.529h-2.332l-3.744 6.421c-.061-.061-.123-.123-.246-.123l-.184.184c-1.657 1.957-3.314 3.485-4.357 3.485-.491 0-.798-.367-.246-1.284l3.744-6.543h-1.35c.061-.978-.92-2.323-2.455-2.323-1.227 0-3.007.978-3.989 2.69l-2.394 4.158a5.655 5.655 0 0 0-.49-.305l-.185.183c-1.657 1.957-3.743 3.485-6.014 3.485-1.596 0-2.578-1.589-1.166-3.974l.675-1.162c.43.061.86.122 1.35.122 2.455 0 5.278-1.284 7.12-4.464.674-1.161.92-2.201.92-3.118 0-2.079-1.35-3.486-3.069-3.486-1.288 0-2.823.917-3.866 2.691l-3.621 6.237c-1.35-.734-2.087-2.018-2.087-3.302 0-1.101.491-2.14 1.473-2.935l-.736-1.345c-1.657 1.161-2.394 2.751-2.394 4.341 0 1.835 1.044 3.608 2.946 4.586l-.675 1.223c-1.657 2.813-.675 5.932 2.64 5.932 2.577 0 4.54-1.162 6.136-2.691-.49 1.468.246 2.691 1.903 2.691.92 0 2.086-.612 3.252-1.529.123.917.86 1.529 2.026 1.529 1.104 0 2.332-.673 3.498-1.712l-.86 1.467h2.333l3.559-6.176c3.56-4.464 5.155-3.852 4.112-2.14l-3.007 5.259c-.982 1.712-.307 3.302 1.596 3.302 1.227 0 2.638-.856 3.989-2.079-.307 1.284.306 2.079 1.473 2.079 1.104 0 2.393-.917 3.436-1.896l-1.288 2.202c-3.13.917-5.156 2.201-5.156 3.974 0 2.202 3.437 2.691 5.094-.183l1.78-3.058c1.964-.611 3.866-1.834 5.892-3.791-.307 3.241 3.989 3.975 6.628.673h.491c.859 0 2.025-.306 3.068-.918l-1.534 2.691h2.332l3.559-6.176c3.56-4.464 5.156-3.852 4.112-2.14l-3.007 5.259c-.982 1.712-.307 3.302 1.596 3.302 1.902 0 4.112-2.079 6.076-4.281-.062-.183-.491-.55-.798-.672Zm-57.935-8.684c.675-1.161 1.473-1.712 2.087-1.712.86 0 1.289.551 1.289 1.407 0 2.14-2.64 6.053-6.26 6.053h-.491l3.375-5.748Zm8.224 9.05c-1.411 2.202-2.823 3.241-3.743 3.241-.491 0-.798-.367-.246-1.284l3.253-5.626c1.227-2.14 3.743-1.589 2.577.49l-1.84 3.179Zm17.675 8.439c-.491.856-1.289.734-1.289.122 0-.611.553-1.284 2.332-1.956l-1.043 1.834Zm15.711-8.683h-.123c-.736 0-1.35.611-1.35 1.406 0 .306.061.551.246.795v.061c-1.105 1.896-3.744 1.529-2.394-.917l1.78-3.057 1.105-1.896c1.657-2.752 3.866-1.651 2.454.734l-1.718 2.874Zm70.27.673c-.123-.366-.552-.733-.859-.795l-.184.184c-.86.978-1.903 1.896-2.824 2.507.737-2.201.553-5.626 2.026-8.561l-1.719-.917c-.982 1.345-3.068 4.342-5.155 6.787l-.184.184c-1.657 1.957-3.314 3.485-4.357 3.485-.491 0-.982-.489-.982-1.589v-.979c1.657.184 3.375-.856 4.48-2.752l.614-1.1c2.148-3.73-1.351-4.953-3.744-2.752l3.314-5.748h-2.332l-6.628 11.496a1.873 1.873 0 0 0-.43-.306l-.184.184c-1.657 1.957-3.805 3.485-5.462 3.485-1.411 0-2.271-.917-1.227-2.751l2.393-4.159c1.35-2.323 3.744-1.895 2.332.49l-.307.55h1.903l.307-.55c1.227-2.141.061-3.73-1.841-3.73-1.903 0-3.376.978-4.358 2.69l-2.271 3.914c-.061 0-.122-.062-.122-.062l-.184.184c-1.657 1.957-3.314 3.485-4.358 3.485-.491 0-.798-.366-.245-1.284l4.971-8.683h-2.332l-4.112 7.216c-1.78 1.59-3.13 2.507-3.56 2.323-.552-.244 0-1.1.307-1.589l4.542-7.889h-2.332l-4.542 7.766c-.491.428-1.043.856-1.473 1.223.737-2.201.553-5.626 2.025-8.561l-1.718-.917c-.982 1.345-6.321 8.439-8.469 10.885.184.305.552.55.859.795 1.35-1.529 5.769-7.216 6.567-8.317-.921 2.385-.43 6.727-2.639 6.727-.798 0-1.105-.856-1.105-.856l-1.473.733s.43 1.896 2.578 1.896c.245 0 .429 0 .675-.061h.061c1.166-.184 2.332-.673 3.437-1.468 0 .918.552 1.529 1.534 1.529 1.289 0 2.701-1.162 3.805-2.201-.245 1.223.491 2.201 1.964 2.201 1.473 0 3.069-1.162 4.603-2.691 0 1.529 1.227 2.691 3.13 2.691 1.902 0 3.744-1.04 5.401-2.446l-1.289 2.263h2.332l2.639-4.587v1.835c0 1.957.368 2.996 2.271 2.996 1.902 0 4.111-2.079 6.075-4.28 1.351-1.529 2.455-3.119 3.314-4.22-.92 2.385-.429 6.727-2.639 6.727-.797 0-1.104-.856-1.104-.856l-1.473.734s.429 1.895 2.577 1.895c.246 0 .43 0 .676-.061h.061c2.332-.428 4.725-2.324 6.444-4.342Zm-15.466-1.834.675-1.162c2.701-3.73 4.542-2.69 3.683-1.284l-1.105 1.896c-.675 1.223-2.7 2.079-3.253.55Zm15.404 3.424a1.36 1.36 0 0 0-1.35 1.345c0 .734.553 1.346 1.35 1.346.737 0 1.351-.551 1.351-1.346a1.36 1.36 0 0 0-1.351-1.345Zm.123-.918h2.332l7.304-12.658h-2.333l-7.303 12.658ZM49.22 169.751c0 .183-.062.366-.123.55a1.332 1.332 0 0 1-.307.489 3.408 3.408 0 0 1-.491.367 2.22 2.22 0 0 1-.675.122 1.71 1.71 0 0 1-.798-.183c-.245-.122-.49-.245-.675-.428-.184-.184-.245-.367-.368-.612a3.055 3.055 0 0 1-.123-.795c0-.55.123-.978.307-1.467.184-.428.43-.856.798-1.162.123-.122.307-.306.49-.428.185-.122.369-.245.553-.306.184-.061.307-.183.43-.244.122-.062.184-.062.245-.123l.86 1.223c-.123.061-.308.123-.492.245-.184.061-.368.183-.552.306-.184.122-.307.305-.43.489a1.029 1.029 0 0 0-.184.611c.43 0 .737.123 1.044.367.368.184.49.551.49.979Zm4.848 0c0 .183-.061.366-.123.55a1.33 1.33 0 0 1-.307.489 3.408 3.408 0 0 1-.49.367c-.185.061-.43.122-.676.122a1.71 1.71 0 0 1-.798-.183c-.245-.122-.49-.245-.675-.428-.122-.184-.245-.367-.368-.612-.061-.244-.123-.489-.123-.795 0-.55.123-.978.307-1.467.184-.428.43-.856.798-1.162.123-.122.307-.306.491-.428s.368-.245.552-.306c.184-.061.307-.183.43-.244.123-.062.184-.062.245-.123l.86 1.223c-.123.061-.307.123-.491.245-.184.061-.369.183-.553.306-.184.122-.307.305-.43.489a1.03 1.03 0 0 0-.183.611c.43 0 .736.123 1.043.367.307.184.49.551.49.979Zm162.695 36.016c0-.183.061-.367.122-.55.062-.184.184-.367.307-.489.123-.123.307-.245.491-.367a2.22 2.22 0 0 1 .675-.122c.307 0 .553.061.798.183.246.122.491.245.675.428.184.183.246.367.368.612.062.244.123.489.123.794 0 .551-.123.979-.307 1.468-.184.428-.429.856-.798 1.162a3.414 3.414 0 0 1-.491.428c-.184.122-.368.244-.552.306-.184.061-.307.183-.429.244-.123.061-.185.061-.246.123l-.859-1.223c.123-.062.307-.123.491-.245.184-.061.368-.183.552-.306.184-.122.307-.306.43-.489s.184-.367.184-.611c-.43 0-.737-.123-1.043-.367-.307-.184-.491-.551-.491-.979Zm-4.787 0c0-.183.061-.367.122-.55.062-.184.184-.367.307-.489.123-.123.307-.245.491-.367a2.22 2.22 0 0 1 .675-.122c.307 0 .553.061.798.183.246.122.491.245.675.428.123.183.246.367.368.612.062.244.123.489.123.794 0 .551-.123.979-.307 1.468-.184.428-.429.856-.798 1.162-.122.122-.306.306-.49.428-.185.122-.369.244-.553.306-.184.061-.307.183-.429.244-.123.061-.185.061-.246.123l-.859-1.223c.184-.062.307-.123.491-.245.184-.061.368-.183.552-.306.184-.122.307-.306.43-.489s.184-.367.184-.611c-.43 0-.737-.123-1.043-.367-.369-.184-.491-.551-.491-.979Z" fill="#fff"/></g></symbol><symbol id="intro-mask-tablet"><g fill="none"><mask id="a" style="mask-type:alpha" maskUnits="userSpaceOnUse" x="0" y="0" width="768" height="57"><path fill="#C4C4C4" d="M0 0h768v57H0z"/></mask><g mask="url(#a)" fill="#fff"><path d="M33.6 23.7-216 0v57h600L33.6 0v23.7Zm700.8 0V0L384 57h599.9V0L734.4 23.7Z"/></g></g></symbol><symbol id="intro-mask"><g fill="none"><mask id="a" style="mask-type:alpha" maskUnits="userSpaceOnUse" x="0" y="0" width="320" height="57"><path fill="#C4C4C4" d="M0 0h320v57H0z"/></mask><g mask="url(#a)" fill="#fff"><path d="M-190.171 23.7-440 0v57h600.55L-190.171 0v23.7Zm701.442 0V0L160.55 57H761V0L511.271 23.7Z"/></g></g></symbol><symbol id="intro-image"><g fill="none"><path d="M27.316 26.637c0 .25-.05.452-.05.653a15.235 15.235 0 0 1-1.955 5.78 11.456 11.456 0 0 1-4.26 4.221c-.652.302-1.354.553-2.055.804-.702.201-1.404.402-2.105.553-.602.1-1.153.201-1.755.252-.601.05-1.152.1-1.704.1h-.601a19.727 19.727 0 0 1-6.867-1.558C3.76 36.437 1.754 35.18 0 33.572l4.661-7.488.1.1.1.1a24.24 24.24 0 0 0 3.56 3.217c1.302.955 2.856 1.508 4.56 1.608.05 0 .1 0 .15.05.05 0 .1.051.15.051.051 0 .101 0 .151.05.05 0 .1.05.15.05.151 0 .301 0 .502-.05.15 0 .35-.05.501-.1.601-.1 1.203-.352 1.754-.704.552-.352 1.003-.754 1.303-1.306.05-.101.1-.151.1-.252.05-.1.1-.15.1-.251.101-.251.151-.503.151-.754.05-.251.05-.452.05-.653 0-1.056-.45-1.96-1.353-2.664a11.45 11.45 0 0 0-2.957-1.659c-.451-.15-.852-.301-1.203-.402-.4-.1-.752-.2-1.103-.25-.05 0-.1 0-.1-.051-.05 0-.1-.05-.1-.05a17.415 17.415 0 0 1-5.363-2.262C4.21 18.847 3.057 17.39 2.406 15.43l-.3-1.206a10.835 10.835 0 0 1-.201-1.357c-.05-.15-.05-.302-.05-.452v-.453c0-.301 0-.603.05-.955 0-.301.05-.603.15-.954.1-.754.3-1.558.601-2.312A8.31 8.31 0 0 1 3.71 5.629c1.252-2.06 2.856-3.519 4.81-4.423C10.375.452 12.43 0 14.535 0c.501 0 1.002.05 1.554.1.5.05 1.052.151 1.604.202 1.403.25 2.806.603 4.16 1.155a26.973 26.973 0 0 1 3.809 1.91l-3.208 7.187a28.007 28.007 0 0 0-3.308-2.06c-1.153-.604-2.406-.855-3.759-.855h-.501c-.902.1-1.704.503-2.506 1.206-.752.704-1.153 1.408-1.153 2.212 0 .1 0 .251.05.351 0 .101.05.252.15.352.1.252.2.503.401.754.2.252.401.453.652.654.451.351 1.053.653 1.854.954.802.302 1.654.553 2.557.855.751.2 1.453.402 2.155.553.701.15 1.303.351 1.754.502 2.155.754 3.81 2.06 4.912 3.87 1.102 1.81 1.654 3.72 1.704 5.73v.25c-.05.252-.05.503-.1.755Zm30.072 3.116v8.342H34.633V.905h22.755v8.141h-12.78v6.484h12.028v7.94H44.607v6.283h12.78Zm38.392-1.458c-1.203 2.563-2.907 4.674-5.162 6.282a16.313 16.313 0 0 1-5.915 2.564c-2.155.452-4.31.753-6.465.854-.602.05-1.253.05-1.855.05H64.456V.855h12.58c.602 0 1.203 0 1.754.05 2.105.1 4.16.402 6.215.854a14.634 14.634 0 0 1 5.614 2.563c2.155 1.508 3.859 3.518 5.062 6.031 1.203 2.513 1.904 5.076 2.055 7.69.05.25.05.452.05.703v1.508a21.36 21.36 0 0 1-2.005 8.041Zm-8.22-9.197c0-.15 0-.302-.05-.452a12.73 12.73 0 0 0-1.052-4.272c-.602-1.357-1.454-2.463-2.556-3.317A6.884 6.884 0 0 0 81.195 9.7c-1.002-.252-2.005-.352-3.057-.402h-3.759v20.505c.1 0 .25 0 .4.05.151 0 .251.05.402.05.15 0 .3 0 .4.05.1 0 .251.05.351.05.401 0 .802 0 1.203-.05.451 0 .852-.05 1.203-.1 1.003-.1 2.005-.251 2.957-.503.953-.25 1.855-.703 2.606-1.206 1.254-.904 2.156-2.11 2.757-3.668.602-1.558.902-3.167.902-4.825v-.553Zm54.932 1.96c0 .402-.05.804-.15 1.206-.1.804-.201 1.608-.451 2.413-.201.804-.501 1.608-.802 2.362-1.654 3.769-4.16 6.684-7.618 8.795-3.459 2.06-7.067 3.116-10.877 3.116-.25 0-.551 0-.801-.05-.251 0-.502-.05-.802-.05-1.304-.101-2.607-.353-3.91-.704a20.084 20.084 0 0 1-3.759-1.458c-3.258-1.709-5.814-4.171-7.668-7.338-1.855-3.166-2.807-6.483-2.807-9.9 0-.503 0-1.005.05-1.508.05-.503.1-1.055.251-1.558.2-1.005.451-2.01.802-3.066.35-1.005.751-2.01 1.303-2.965 1.804-3.317 4.26-5.83 7.468-7.589 3.157-1.759 6.515-2.613 9.974-2.613.451 0 .952 0 1.403.05.501.05.952.1 1.403.1a21.556 21.556 0 0 1 8.32 3.015c2.757 1.81 4.912 4.172 6.416 7.138 1.503 2.965 2.255 6.08 2.255 9.297v1.307Zm-10.124-2.11c0-.252-.05-.453-.05-.704a14.214 14.214 0 0 0-1.504-4.825 9.008 9.008 0 0 0-3.358-3.619 11.453 11.453 0 0 0-1.153-.502c-.401-.151-.751-.302-1.152-.402a9.23 9.23 0 0 0-1.153-.201c-.401-.05-.752-.1-1.153-.1-1.955 0-3.809.602-5.463 1.859a9.876 9.876 0 0 0-3.509 4.975c-.05.1-.05.15-.1.251 0 .1-.05.151-.05.252l-.301 1.055c-.1.352-.15.754-.25 1.156-.05.251-.05.553-.1.804 0 .252-.051.503-.051.804v.453c0 .15 0 .301.051.452.1 2.06.751 4.02 1.904 5.88 1.153 1.86 2.707 3.066 4.762 3.669.25.1.451.15.701.2l.752.152c.251.05.451.05.702.1.25 0 .451.05.701.05 2.055 0 3.91-.603 5.564-1.86 1.654-1.205 2.857-2.864 3.558-4.924l.301-1.206c.1-.453.15-.855.201-1.307.05-.252.05-.553.1-.804 0-.252.05-.503.05-.754v-.905Zm43.855 19.147-14.084-19.198c-.401-.452-.751-1.005-1.102-1.659-.351-.653-.702-1.306-1.003-2.01a19.608 19.608 0 0 1-.651-1.508 17.994 17.994 0 0 0-.602-1.357c.201 1.207.351 2.413.451 3.67a46.72 46.72 0 0 1 .151 3.718v18.344h-9.774V.905h9.774l13.983 19.098c.351.552.702 1.105 1.003 1.708.351.603.651 1.207.952 1.86.251.502.451 1.005.702 1.508.25.502.451 1.005.701 1.457-.05-.452-.1-.854-.15-1.206l-.15-1.206a18.192 18.192 0 0 1-.151-2.413c-.05-.804-.05-1.658-.05-2.512V.954h9.724v37.19h-9.724v-.05Zm42.653 0-1.855-6.684h-14.334l-1.905 6.735h-10.024L203.489.955h12.63L229 38.145h-10.124v-.05Zm-7.769-26.184c-.2-.603-.401-1.206-.551-1.86-.151-.653-.301-1.256-.451-1.91-.101-.25-.151-.452-.151-.653-.05-.2-.1-.402-.1-.603l-.15.603c-.05.201-.101.453-.151.654-.05.1-.05.15-.05.2 0 .051 0 .152-.05.202-.1.603-.251 1.156-.401 1.709l-.451 1.658-3.759 12.313h10.074l-3.809-12.313Z" fill="#fff"/></g></symbol><symbol id="mask-desktop"><g fill="none"><path d="M249.6 23.7 0 0v57h600L249.6 0v23.7Zm700.8 0V0L600 57h599.9V0L950.4 23.7Z" fill="#fff"/></g></symbol><symbol id="telegram-icon"><g fill="none"><path d="m22.44 4.622-3.17 14.944c-.239 1.055-.862 1.317-1.748.82l-4.828-3.558-2.33 2.242c-.258.258-.473.473-.97.473l.347-4.917 8.948-8.086c.39-.346-.084-.54-.604-.192L7.022 13.314 2.26 11.823c-1.036-.323-1.055-1.036.216-1.533l18.628-7.177c.862-.323 1.617.192 1.335 1.51Z" fill="#fff"/></g></symbol><symbol id="vkontakte-icon"><g fill="none"><g clip-path="url(#a)"><path fill-rule="evenodd" clip-rule="evenodd" d="M23.45 5.948c.166-.546 0-.948-.795-.948H20.03c-.668 0-.976.347-1.143.73 0 0-1.335 3.196-3.226 5.272-.612.602-.89.793-1.224.793-.167 0-.418-.191-.418-.738V5.948c0-.656-.184-.948-.74-.948H9.151c-.417 0-.668.304-.668.593 0 .621.946.765 1.043 2.513v3.798c0 .833-.153.984-.487.984-.89 0-3.055-3.211-4.34-6.885C4.45 5.288 4.198 5 3.527 5H.9c-.75 0-.9.347-.9.73 0 .682.89 4.07 4.145 8.551C6.315 17.341 9.37 19 12.153 19c1.669 0 1.875-.368 1.875-1.003v-2.313c0-.737.158-.884.687-.884.39 0 1.057.192 2.615 1.667C19.11 18.216 19.403 19 20.405 19h2.625c.75 0 1.126-.368.91-1.096-.238-.724-1.088-1.775-2.215-3.022-.612-.71-1.53-1.475-1.809-1.858-.389-.491-.278-.71 0-1.147 0 0 3.2-4.426 3.533-5.929h.001Z" fill="#fff"/></g></g></symbol><symbol id="youtube-icon"><g fill="none"><path d="M19.181 5H4.813C3.306 5 2 6.3 2 7.8v8.3C2 17.7 3.306 19 4.813 19h14.368c1.608 0 2.814-1.3 2.814-2.8V7.8c.1-1.5-1.206-2.8-2.814-2.8ZM9.033 15.4V8.6l6.833 3.4-6.833 3.4Z" fill="#fff"/></g></symbol></svg>