<svg width="185" height="96" fill="none" xmlns="http://www.w3.org/2000/svg"><path d="M185 0H0l80 90c7 8 18 8 25 0l80-90Z" fill="#81B3D3"/><path d="m43 1 49 58 49-58H43Z" fill="#23A9E1"/><path d="M121 17h-15c6-7 9-6 15 0ZM80 23h27c-2-2-7-7-10-5 0 0-7-9-12-5-4 4-6 0-11 3s4 5 6 7Z" fill="#fff"/><path d="M92 0H42v22l50 62v-1l51-60V0H92ZM54 2h6v17l-6-7V2Zm0 10-5-6V2h5v10Zm19-3-6-7h6v7Zm-7 4L61 2h5v11ZM61 3l5 11-5 5V3Zm6 0 6 7a42 42 0 0 0-6 3V3Zm7 0 4 4-4 2V3Zm5 4-5-5h6v4l-1 1Zm19-5h5l-5 2V2Zm-6 0h5l-5 2V2Zm-1 2-4-2h4v2Zm-5 0-5-2h5v2Zm-6-2 5 3-5 1V2Zm7 0 3 2h-3V2Zm10 0v2h-3l3-2Zm7 0v4l-5-1 5-3Zm0 0h6l-5 5-1-1V2Zm14 0h5l-5 11V2Zm-7 0h6l-6 7V2Zm-1 1v6l-4-2 4-4Zm7 0v10l-2-1-4-2 6-7Zm6 0v16l-5-5 5-11Zm1 16V2h5v11l-5 6Zm6-17h5v4l-5 6V2ZM48 2v3l-2-3h2Zm13 18 9-8c5-3 13-7 22-7s17 4 22 8c6 3 9 7 9 7l-3 5c-7 1-12 6-19 5-3-1-3-3-4-5l-4-2-5-1c-2 1-3 5-6 4-2 0-2-2-4-5-6-8-12-6-16 1l30 35-31-37Zm75-15V2h3l-3 3Z" fill="#491213"/><path d="m88 71 4-7 4 7-4 6-4-6Z" fill="#23A9E1"/><path d="m65 32 1 2-1 2 3-3-6-6-3 1h2l2 2-6 5h-1l1 1 2 3v-2l6-5ZM60 25h1l-3-3s0-1 0 0l-7 6h-1l2 3 1 1v-1l1-1 6-5ZM51 24c-2 1-4 0-4-2-1-1 0-3 2-4h4v4l3-3-2-3-4-2c-3 0-5 3-6 5l2 4 2 3 3-1v-1c-1 0 0 0 0 0ZM90 61l-5-6v1l-6 5h-2l3 4 1-1 3-3 1 1v2l2-3c1 0 0 0 0 0h-1l-1-1 1-1 2 2v3l2-3c0-1 0 0 0 0ZM80 56c2-2 2-5 1-7-2-2-6-3-8-1s-3 5-1 7c2 3 5 3 8 1 1-1 0 0 0 0Zm-1-4-3 3c-2 1-3 0-3-2l4-4c2-1 3 1 2 3 0 1 0-1 0 0ZM73 42h2l-2-3-1 1-3 1 1-3h2l-3-3-1-1v2l-2 4-3 3h-1l3 2v1l1-1 3-3h4c1 0 0 0 0 0Z" fill="#fff"/><path d="M67 23c-4 0-2-4 1-5 2-1 8 2 9 3l-9 1c0-3-1-2-1 1ZM77 35c-9 0-3-13 0-12s3 12 0 12ZM83 31c-1 2-3 3-2 0 0-4 2-3 4-4s3-5 7-3c1 1 3 0 4 2 0 0-5 10-2 10-5 0-3-6-1-10-2 1-5 7-2 8-2 2-6 4-8 2v-5ZM87 41c-4 1-8-2-3-3 4 0 7 1 3 3ZM91 40c-1-1 1-3 3-2s-1 3-3 2ZM88 45c-2-1-10-1-5-3 2 0 10 0 5 3ZM99 48h-5c-1-3-8-2-11-2 2 4 15 4 16 2ZM97 51H87c2 0 6 2 2 3 2 2 4 2 6 0l-2-1 4-2ZM100 47c-5-3-4-5 1-8 2-1 7-5 9-4l-10 12Z" fill="#DC6243"/><path d="M96 40c-4-5 7-5 9-6 1 0 11-8 13-8-2 2-5 8-8 8l-5 1-9 5Z" fill="#F49774"/><path d="M98 34c-3 1-5-4-1-3h9c-2 2-5 3-8 3Z" fill="#F4B1A4"/><path d="m110 52 1 2c0 1-1 3-3 3l-3-3c1-1 2-2 3-1v-1l-3-1v1l-1 1-1-2 2-1 2-1-3-1-4 5-1 1h1l7 6v1l6-7-3-3v1ZM104 59c-2-1-5 1-6 1-1 1-2 0-1-1l2-1h2v-1l-3-1-2 2-1 3 1 3c1 1 3 0 4-1l1-1c1 0 3 0 2 2l-2 2h-3l3 2 2-1 1-3c2-1 2-4 0-5Z" fill="#fff"/><path d="M104 59c1 1 0-1 0 0ZM141 20l-9-3-1-1-1 1-1 2v1l5 8-7-5-1-1-1 1v1h1l2 2h-3l-1-1-2 3-2 1h1l7 6v1l2-2v-1l-1 1-6-5a328 328 0 0 1 9 1v1l2-2v-1l2-2h-1l-2-2 1-1h4v1l3-4Zm-8 2s1 0 0 0l-1 1-1-3 3 1-1 1ZM124 33c-3-2-6-2-8 1-2 2-1 5 1 7s5 2 7-1c2-2 2-5 0-7Zm-1 6s0 1 0 0c-1 2-3 1-4 0s-3-3-2-4c1-2 3-1 4 0s4 3 3 4h-1Z" fill="#fff"/><path d="M124 33c1 1-1 0 0 0ZM123 40c0-1 0-1 0 0l1-1-1 1ZM117 42c-3-2-6-2-8 1l-3 4h1l6 5v1l5-6c1-2 1-4-1-5Zm-1 7h-1l-6-4 4-2c2 1 5 3 3 6Z" fill="#fff"/></svg>